<?xml version="1.0" encoding="UTF-8"?>


<svg t="1575082427334" class="icon" viewBox="0 0 1024 1024" version="1.1" xmlns="http://www.w3.org/2000/svg" p-id="7334" width="50" height="50"><path d="M414 380.5c-12.4 0-22.6-10.1-22.6-22.6V101.3c0-12.4 10.1-22.6 22.6-22.6 12.4 0 22.6 10.1 22.6 22.6v256.6c0 12.5-10.1 22.6-22.6 22.6z" fill="#FCFC5B" p-id="7335"></path><path d="M414 87.7c7.5 0 13.7 6.2 13.7 13.7V358c0 7.5-6.2 13.7-13.7 13.7-7.5 0-13.7-6.2-13.7-13.7V101.3c0.1-7.5 6.2-13.6 13.7-13.6m0-17.8c-17.4 0-31.5 14.1-31.5 31.5V358c0 17.4 14.1 31.5 31.5 31.5s31.5-14.1 31.5-31.5V101.3c0-17.3-14.1-31.4-31.5-31.4z" fill="#DB337F" p-id="7336"></path><path d="M597.3 380.5c-12.4 0-22.6-10.1-22.6-22.6V101.3c0-12.4 10.1-22.6 22.6-22.6 12.4 0 22.6 10.1 22.6 22.6v256.6c0 12.5-10.1 22.6-22.6 22.6z" fill="#FCFC5B" p-id="7337"></path><path d="M597.3 87.7c7.5 0 13.7 6.2 13.7 13.7V358c0 7.5-6.2 13.7-13.7 13.7s-13.7-6.2-13.7-13.7V101.3c0-7.5 6.2-13.6 13.7-13.6m0-17.8c-17.4 0-31.5 14.1-31.5 31.5V358c0 17.4 14.1 31.5 31.5 31.5s31.5-14.1 31.5-31.5V101.3c0-17.3-14.1-31.4-31.5-31.4z" fill="#DB337F" p-id="7338"></path><path d="M653.2 267.5c0.7 40.3-65.3 74.1-147.3 75.6-82 1.4-149-30.1-149.7-70.4-0.7-40.3 65.3-74.1 147.3-75.6 82.1-1.4 149.1 30.1 149.7 70.4z" fill="#FFFFFF" p-id="7339"></path><path d="M500.6 353.8c-57.6 0-109.4-15.7-136.1-41.6-12.2-11.7-18.7-25.4-18.9-39.4-0.8-46.9 68.6-84.9 157.8-86.4 59.8-1 114.1 14.9 141.6 41.5 12.2 11.8 18.7 25.4 18.9 39.4 0.8 46.9-68.6 84.9-157.8 86.4-1.8 0.1-3.7 0.1-5.5 0.1z m8.2-146h-5.1c-82.4 1.4-137.3 34.6-136.8 64.7 0.1 8.3 4.3 16.5 12.4 24.4 23.3 22.5 72.9 36.5 126.4 35.5 82.4-1.4 137.3-34.6 136.8-64.7-0.1-8.3-4.3-16.5-12.4-24.4-22.5-21.8-69.7-35.5-121.3-35.5z" fill="#DB337F" p-id="7340"></path><path d="M641 942.4c-50.9 0-117.1-21.3-136.3-28.7-1.2-0.5-2.6-0.7-3.9-0.7s-2.6 0.2-3.9 0.7c-17.1 6.7-76.8 28.4-125.4 28.4-33.2 0-52.9-9.6-60.5-29.3-2-5.3-2.4-10.6-2.7-16.3-1.4-21-5.8-38-48.4-48.5-0.8-0.2-1.5-0.5-2.4-2.2-5.1-9.9 0.1-38 8.2-57.9 13.3-33 34.8-92.1 61.7-186.2 29.6-103.9 47.2-138.2 55.1-149.4 0.3-0.4 0.7-0.8 1-1.2 3.8-4.1 3.7-10.5-0.2-14.5-12.5-13.1-19.4-30.2-19.4-48.1 0-38.5 31.4-69.9 69.9-69.9h132.4c38.5 0 69.9 31.4 69.9 69.9 0 16.6-6 32.7-17 45.4-2.1 2.4-3 5.6-2.4 8.8 0.5 3.1 2.4 5.9 5.2 7.5 0.4 0.2 1.1 0.8 2.1 2.1 7.9 11.2 25.5 45.5 55.1 149.4 26.8 94 48.3 153.2 61.6 186.2 7.4 18.3 6.8 49.6-1.2 65.7-1.4 2.8-4.6 4.7-10 7.9-12 6.9-30 17.2-34.7 53.8-0.7 6.7-3.3 27.1-53.8 27.1z" fill="#F9DCEB" p-id="7341"></path><path d="M566.4 329.3c32.7 0 59.2 26.6 59.2 59.2 0 14-5.1 27.7-14.4 38.4-4.2 4.8-5.9 11.3-4.9 17.5 1 5.8 4.4 11 9.2 14.2 6.2 9 23.5 40.8 53.4 145.9 26.9 94.5 48.6 154 62 187.3 6.2 15.3 5.8 43.1-0.7 56.5-1 0.9-3.9 2.5-6 3.7-13 7.4-34.6 19.9-40 61.8-1.5 11.8-16.1 17.8-43.3 17.8-49.3 0-113.7-20.8-132.4-28-2.5-1-5.1-1.5-7.7-1.5-2.6 0-5.3 0.5-7.7 1.5-16.7 6.5-74.8 27.7-121.5 27.7-41.9 0-48.4-16.8-50.5-22.4-1.4-3.8-1.7-8.1-2.1-13.2-1.5-22.1-6.8-44.7-52.5-57.1-1.3-8.4 2.2-29.3 9.2-46.7 13.4-33.3 35.1-92.8 62-187.3 30-105.2 47.2-137 53.4-145.9l0.3-0.4c7.5-8.3 7.3-21-0.4-29.1-10.6-11.1-16.4-25.6-16.4-40.7 0-32.7 26.6-59.2 59.2-59.2h132.6M566.4 307.9H434c-44.3 0-80.6 36.3-80.6 80.6 0 21.4 8.5 40.9 22.3 55.4-0.6 0.7-1.2 1.4-1.8 2.2-8.8 12.5-27 48.7-56.7 152.6-27 94.8-48.6 153.7-61.3 185.1-8.5 21.1-20.3 69 1.6 74.4 53.1 13.1 34.3 33.8 43.7 58.3 10.4 27.2 38.3 36.1 70.4 36.1 48.2 0 106-20.1 129.3-29.1 23.3 9 89.2 29.5 140.1 29.5 33.9 0 61-9 64.5-36.5 6.1-47.8 35.2-41.3 43.7-58.3 9.4-18.7 10.1-53.4 1.6-74.4-12.7-31.5-34.3-90.3-61.3-185.1-29.6-103.9-47.8-140.1-56.7-152.6-1.7-2.4-3.6-4.1-5.5-5.2 12.1-14.1 19.5-32.4 19.5-52.4 0.2-44.3-36.1-80.6-80.4-80.6z" fill="#DB337F" p-id="7342"></path><path d="M330.3 843.6c-1.6 0-3.2-0.6-4.3-1.9-1.9-2.1-1.5-5.4 0.8-7.1 36.6-27.3 77.7-232.1 90.4-308.7 0.4-2.7 3.3-4.7 6.3-4.2 3 0.4 5 3 4.6 5.8-0.1 0.7-11.7 70.3-28.9 143.3-23.2 98.9-45.3 156.7-65.5 171.7-1 0.7-2.2 1.1-3.4 1.1z m333 0c-1.2 0-2.4-0.4-3.4-1.1-20.2-15.1-42.2-72.9-65.5-171.7-17.2-73-28.8-142.6-28.9-143.3-0.4-2.7 1.6-5.4 4.6-5.8 3-0.4 5.8 1.5 6.2 4.2 12.7 76.6 53.9 281.3 90.4 308.7 2.3 1.7 2.7 5 0.8 7.1-1 1.2-2.5 1.9-4.2 1.9z m-166-9c-3.1 0-5.5-2.2-5.5-5.1l0.3-302.9c0-2.8 2.4-5.1 5.5-5.1s5.5 2.2 5.5 5.1l-0.3 302.9c-0.1 2.9-2.5 5.1-5.5 5.1z m0 0" fill="#DB337F" p-id="7343"></path><path d="M663.3 847.2c-1.9 0-3.9-0.6-5.5-1.8-20.9-15.6-43.4-74.1-66.8-173.8-17.2-72.7-28.9-142.9-29-143.6-0.4-2.2 0.2-4.4 1.6-6.3 1.4-1.9 3.6-3.2 6.1-3.6 4.9-0.7 9.5 2.6 10.2 7.2C597.5 631.2 637.2 808 669 831.8c2 1.5 3.2 3.7 3.4 6 0.2 2.3-0.6 4.6-2.2 6.3-1.7 2-4.2 3.1-6.9 3.1z m-92.3-322h-0.3c-0.5 0.1-1 0.3-1.3 0.7-0.2 0.2-0.3 0.5-0.3 0.9 0.1 0.6 11.7 70.2 28.9 143 28.7 122.1 50.7 159.7 64.1 169.7 0.8 0.6 2.2 0.5 2.9-0.3 0.3-0.3 0.4-0.5 0.3-0.9 0-0.4-0.2-0.7-0.6-1-37.7-28.2-79.1-234-91.8-310.9-0.1-0.5-1-1.2-1.9-1.2z m-240.7 322c-2.8 0-5.3-1.1-7-3.2-1.5-1.7-2.2-4-2-6.3 0.2-2.3 1.5-4.5 3.4-5.9 31.7-23.7 71.5-200.5 89.1-306.4 0.7-4.6 5.3-7.9 10.2-7.2 2.4 0.3 4.6 1.6 6.1 3.6 1.4 1.8 1.9 4.1 1.6 6.3-0.1 0.6-11.6 69.8-29 143.6-23.4 99.7-45.9 158.2-66.8 173.8-1.7 1.1-3.7 1.7-5.6 1.7z m92.4-322c-1 0-1.8 0.7-1.9 1.3-0.5 2.8-46.5 277.1-91.8 310.9-0.4 0.3-0.5 0.7-0.5 0.9 0 0.2 0 0.6 0.3 1 0.3 0.3 1.6 1.2 2.9 0.3 13.4-10 35.4-47.6 64.1-169.7 17.3-73.3 28.8-142.4 28.9-143 0.1-0.4-0.1-0.7-0.3-0.9-0.3-0.4-0.8-0.7-1.3-0.7-0.2-0.1-0.3-0.1-0.4-0.1z m74.6 313c-5.1 0-9-3.8-9-8.6l0.3-302.9c0-4.8 4-8.6 9-8.6 5.1 0 9 3.8 9 8.6l-0.3 302.9c0 4.8-4 8.6-9 8.6z m0.3-313c-1.1 0-1.9 0.6-1.9 1.5l-0.3 302.9c0 1.7 3.8 1.7 3.8 0l0.3-302.9c0-0.9-0.8-1.5-1.9-1.5z" fill="#DB337F" p-id="7344"></path><path d="M416.5 370.3c-6 0-12.1-0.9-18.2-2.7-27.3-8.3-50-26.1-63.7-50.2-13.6-24-16.9-51.3-9.1-76.9l18.9-62.6c2.2 0.7 4.4 1.4 6.5 2.1 1.6 0.5 3.1 1.1 4.7 1.7 17.6 6.6 34 15.5 48.8 26.7 1.2 0.9 2.2 1.7 3.2 2.5 11.8 9.3 22.3 19.7 31.4 31.2 1.7 2.2 3.3 4.3 4.9 6.5 9.1 12.6 16.6 26.2 22.1 40.4 0.6 1.5 1.1 2.8 1.6 4.1 0.9 2.3 1.7 4.7 2.4 7.1 5.7 18 1.2 32.3-3.6 41.1-2.7 4.9-6.1 9.3-10.1 13.2-5.8 5.6-12.8 9.9-20.4 12.6-6.2 2.1-12.7 3.2-19.4 3.2z" fill="#F9DCEB" p-id="7345"></path><path d="M351.4 191.4c0.2 0.1 0.3 0.1 0.5 0.2 16.6 6.2 32.1 14.7 46.1 25.2 0.1 0.1 0.2 0.2 0.4 0.3 0.9 0.6 1.7 1.3 2.8 2.2 11 8.6 20.9 18.5 29.6 29.5 1.6 2 3.1 4 4.5 6 8.6 11.9 15.6 24.7 20.9 38.3 0.5 1.2 0.9 2.4 1.4 3.6 0.8 2.2 1.5 4.3 2.3 6.6 4.6 14.4 1 25.8-2.8 32.7-2.2 3.9-4.9 7.5-8.1 10.6-4.7 4.5-10.4 8-16.6 10.2-5.1 1.8-10.4 2.7-15.9 2.7-5 0-10.1-0.8-15.1-2.3-24.7-7.5-45.1-23.5-57.5-45.3-12.2-21.4-15.1-45.8-8.2-68.6l15.7-51.9m-14.2-26.9l-22 72.8c-17.8 58.9 18 121.8 80 140.5 7.2 2.2 14.4 3.2 21.3 3.2 8.1 0 15.8-1.4 23-4 9.2-3.2 17.5-8.4 24.2-15 4.8-4.6 8.9-10 12-15.8 7.7-14.2 10.1-31.5 4.4-49.4-0.8-2.6-1.7-5.1-2.6-7.6-0.5-1.4-1.1-2.9-1.6-4.3-5.9-15.1-13.8-29.5-23.4-42.8-1.7-2.3-3.4-4.6-5.2-6.8-9.6-12.1-20.7-23.2-33.1-32.9-1.1-0.9-2.3-1.8-3.5-2.7-15.3-11.5-32.6-21.1-51.4-28.1-1.6-0.6-3.3-1.2-4.9-1.8-2.6-0.9-5.2-1.8-7.9-2.6l-9.3-2.7z" fill="#DB337F" p-id="7346"></path><path d="M577.5 370.3c-6.7 0-13.2-1.1-19.4-3.3-7.6-2.7-14.6-7-20.4-12.6-4-3.9-7.4-8.3-10.1-13.2-4.8-8.8-9.3-23.1-3.6-41.1 0.8-2.4 1.6-4.8 2.4-7.1l1.5-3.9c5.6-14.3 13-27.9 22.2-40.6 1.6-2.2 3.2-4.3 4.9-6.4 9.1-11.6 19.7-22.1 31.3-31.2 1.1-0.9 2.1-1.7 3.2-2.4 15-11.3 31.4-20.3 48.9-26.8 1.6-0.6 3.1-1.2 4.7-1.7 2.2-0.8 4.4-1.5 6.6-2.1l18.9 62.6c7.7 25.7 4.5 53-9.1 76.9-13.7 24.1-36.4 42-63.7 50.2-6.1 1.8-12.2 2.7-18.3 2.7z" fill="#F9DCEB" p-id="7347"></path><path d="M642.6 191.4l15.7 52c14.3 47.5-15.1 98.6-65.7 113.9-5 1.5-10.1 2.3-15.1 2.3-5.5 0-10.8-0.9-15.9-2.7-6.1-2.2-11.8-5.7-16.5-10.2-3.2-3.1-6-6.7-8.1-10.6-3.8-7-7.4-18.3-2.8-32.8 0.7-2.2 1.4-4.4 2.2-6.6 0.4-1.2 0.9-2.4 1.5-3.9 5.2-13.3 12.2-26.1 20.8-38 1.5-2 3-4 4.7-6.1 8.6-10.9 18.5-20.7 29.8-29.6 0.8-0.7 1.7-1.3 2.6-2 0.1-0.1 0.2-0.2 0.4-0.3 14-10.5 29.5-19 46.1-25.2 0 0 0.2-0.1 0.3-0.2m14.2-26.9l-9.3 2.8c-2.7 0.8-5.3 1.6-7.9 2.6-1.7 0.6-3.3 1.2-4.9 1.8-18.9 7-36.1 16.6-51.4 28.1-1.2 0.9-2.4 1.8-3.5 2.7-12.4 9.7-23.5 20.8-33.1 32.9-1.8 2.2-3.5 4.5-5.2 6.8-9.6 13.3-17.5 27.7-23.4 42.8-0.6 1.4-1.1 2.9-1.6 4.3-0.9 2.5-1.8 5-2.6 7.6-5.7 17.9-3.3 35.2 4.4 49.4 3.2 5.8 7.2 11.2 12 15.8 6.8 6.5 15 11.7 24.2 15 7.2 2.6 14.9 4 23 4 6.9 0 14-1 21.3-3.2 62-18.7 97.8-81.6 80-140.5l-22-72.9z" fill="#DB337F" p-id="7348"></path><path d="M533.3 346.3c-4 0-8-1.1-11.5-3.1L504 333.1h-12.7l-17.7 10.1c-3.5 2-7.5 3.1-11.5 3.1-3.9 0-7.7-1-11.1-2.8-7.3-4-11.7-11.2-11.7-19.4V301c0-8.1 4.4-15.4 11.7-19.4 3.5-1.9 7.3-2.8 11.1-2.8 4 0 8 1.1 11.5 3.1l17.7 10.1H504l17.7-10.1c3.5-2 7.5-3.1 11.5-3.1 3.9 0 7.7 1 11.1 2.8 7.3 4 11.7 11.2 11.7 19.4v23.1c0 8.2-4.4 15.4-11.7 19.4-3.4 1.8-7.2 2.8-11 2.8z" fill="#FCFC5B" p-id="7349"></path><path d="M462 287.6c2.5 0 4.9 0.6 7.1 1.9l19.8 11.3h17.4l19.8-11.3c2.2-1.3 4.7-1.9 7.1-1.9 2.4 0 4.7 0.6 6.9 1.8 4.4 2.4 7 6.7 7 11.5V324c0 4.8-2.6 9.2-7 11.6-2.2 1.2-4.5 1.8-6.9 1.8-2.4 0-4.9-0.6-7.1-1.9l-19.8-11.3h-17.4l-19.8 11.3c-2.2 1.3-4.7 1.9-7.1 1.9-2.3 0-4.7-0.6-6.9-1.8-4.4-2.4-7-6.7-7-11.5V301c0-4.8 2.6-9.2 7-11.6 2.2-1.2 4.6-1.8 6.9-1.8m0-17.8c-5.3 0-10.6 1.3-15.4 3.9-10.1 5.5-16.4 15.9-16.4 27.2V324c0 11.3 6.3 21.7 16.4 27.2 4.7 2.6 10 3.9 15.4 3.9 5.6 0 11.1-1.5 16-4.2l15.7-8.9h7.9l15.7 8.9c4.9 2.8 10.4 4.2 15.9 4.2 5.3 0 10.6-1.3 15.3-3.9 10.1-5.5 16.4-15.9 16.4-27.2v-23c0-11.3-6.3-21.7-16.4-27.2-4.7-2.5-10-3.9-15.3-3.9-5.6 0-11.1 1.5-16 4.2l-15.7 8.9h-7.9l-15.7-8.9c-4.8-2.8-10.3-4.3-15.9-4.3z" fill="#DB337F" p-id="7350"></path></svg>